# ProBuilder 4.5.2
# https://unity3d.com/unity/features/worldbuilding/probuilder
# 21.12.2022 22:26:30

mtllib ./Cube.mtl
o Cube

g Cube
v 2 0 0
v 1 0 0
v 1 1 0
v 2 1 0
v 1 0 -30
v 2 0 -30
v 2 1 -30
v 1 1 -30
v -29 0 0
v -29 1 0
v -30 0 0
v -30 1 0
v -29 1 -30
v -29 0 -30
v -30 1 -30
v -30 0 -30
v -30 0 -1
v -30 1 -1
v 2 0 -1
v 2 1 -1
v 2 2 -1
v 2 2 0
v 1 2 0
v 1 2 -1
v 1 0 -1
v -29 2 -1
v -29 2 0
v -30 2 0
v -30 2 -1
v -29 0 -1
v -30 0 -29
v -30 1 -29
v 2 1 -29
v 2 0 -29
v 1 2 -30
v 2 2 -30
v 2 2 -29
v 1 2 -29
v 1 0 -29
v -30 2 -30
v -29 2 -30
v -29 2 -29
v -30 2 -29
v 1 1 -29
v 1 1 -1
v -29 1 -1
v -29 1 -29
v -29 0 -29

vt 2 0
vt 1 0
vt 1 1
vt 2 1
vt -1 0
vt -2 0
vt -2 1
vt -1 1
vt -29 0
vt -29 1
vt -30 0
vt -30 1
vt 29 1
vt 29 0
vt 30 1
vt 30 0
vt 0 0
vt 0 1
vt -2 -1
vt -1 -1
vt 1 -1
vt 2 -1
vt 29 -1
vt 30 -1
vt -30 -1
vt -29 -1
vt -1 -30
vt -2 -30
vt -2 -29
vt -1 -29
vt 1 -30
vt 1 -29
vt 2 -29
vt 2 -30
vt 30 -30
vt 29 -30
vt 29 -29
vt 30 -29
vt -30 -30
vt -30 -29
vt -29 -29
vt -29 -30
vt 29 2
vt -1 2
vt 2 2
vt 1 2
vt 0 2
vt -29 2
vt -2 2
vt 30 2
vt -30 2

vn 0 0 1
vn 0 0 -1
vn -1 0 0
vn 1 0 0
vn 0 1 0
vn 0 -1 0

usemtl Grid
f 4/4/1 3/3/1 2/2/1 1/1/1
f 5/5/2 8/8/2 7/7/2 6/6/2
f 3/3/1 10/10/1 9/9/1 2/2/1
f 10/10/1 12/12/1 11/11/1 9/9/1
f 14/14/2 13/13/2 8/8/2 5/5/2
f 16/16/2 15/15/2 13/13/2 14/14/2
f 12/18/3 18/8/3 17/5/3 11/17/3
f 19/2/4 20/3/4 4/18/4 1/17/4
f 23/5/5 22/6/5 21/19/5 24/20/5
f 19/22/6 1/1/6 2/2/6 25/21/6
f 28/16/5 27/14/5 26/23/5 29/24/5
f 27/14/5 23/5/5 24/20/5 26/23/5
f 30/26/6 9/9/6 11/11/6 17/25/6
f 25/21/6 2/2/6 9/9/6 30/26/6
f 18/8/3 32/10/3 31/9/3 17/5/3
f 32/10/3 15/12/3 16/11/3 31/9/3
f 34/14/4 33/13/4 20/3/4 19/2/4
f 6/16/4 7/15/4 33/13/4 34/14/4
f 38/30/5 37/29/5 36/28/5 35/27/5
f 24/20/5 21/19/5 37/29/5 38/30/5
f 6/34/6 34/33/6 39/32/6 5/31/6
f 34/33/6 19/22/6 25/21/6 39/32/6
f 43/38/5 42/37/5 41/36/5 40/35/5
f 29/24/5 26/23/5 42/37/5 43/38/5
f 42/37/5 38/30/5 35/27/5 41/36/5
f 46/23/5 45/20/5 44/30/5 47/37/5
f 14/42/6 48/41/6 31/40/6 16/39/6
f 48/41/6 30/26/6 17/25/6 31/40/6
f 5/31/6 39/32/6 48/41/6 14/42/6
f 39/32/6 25/21/6 30/26/6 48/41/6
f 26/43/2 24/44/2 45/8/2 46/13/2
f 22/45/1 23/46/1 3/3/1 4/4/1
f 28/47/3 29/44/3 18/8/3 12/18/3
f 23/46/1 27/48/1 10/10/1 3/3/1
f 35/44/2 36/49/2 7/7/2 8/8/2
f 21/46/4 22/47/4 4/18/4 20/3/4
f 41/43/2 35/44/2 8/8/2 13/13/2
f 37/43/4 21/46/4 20/3/4 33/13/4
f 24/44/3 38/48/3 44/10/3 45/8/3
f 36/50/4 37/43/4 33/13/4 7/15/4
f 43/48/3 40/51/3 15/12/3 32/10/3
f 38/46/1 42/48/1 47/10/1 44/3/1
f 40/50/2 41/43/2 13/13/2 15/15/2
f 42/43/4 26/46/4 46/3/4 47/13/4
f 29/44/3 43/48/3 32/10/3 18/8/3
f 27/48/1 28/51/1 12/12/1 10/10/1

