# ProBuilder 4.5.2
# https://unity3d.com/unity/features/worldbuilding/probuilder
# 22.12.2022 19:29:39

mtllib ./Prism.mtl
o Prism

g Prism
v 0 0 0
v -4 0 0
v 0 4 0
v -4 0 2
v 0 4 2
v 0 0 2

vt 0 0
vt 4 0
vt 0 4
vt 2.828427 0
vt 2.828427 2
vt -2.828427 0
vt -2.828427 2
vt -4 0
vt -2 0
vt -2 4
vt 0 2
vt -4 2

vn 0 0 -1
vn -0.7071068 0.7071068 0
vn 0 0 1
vn 1 0 0
vn 0 -1 0

usemtl Grid
f 1/1/1 2/2/1 3/3/1
f 4/8/3 6/1/3 5/3/3
f 3/6/2 2/4/2 4/5/2
f 4/5/2 5/7/2 3/6/2
f 5/10/4 6/9/4 1/1/4
f 1/1/4 3/3/4 5/10/4
f 4/12/5 2/8/5 1/1/5
f 1/1/5 6/11/5 4/12/5

